<svg viewBox="0 0 96 96" xmlns="http://www.w3.org/2000/svg" xmlns:xlink="http://www.w3.org/1999/xlink" id="Icons_Heartbeat" overflow="hidden"><path d="M43 75 42.7 75C41.4 74.9 40.3 73.9 40 72.6L33.1 36 28.8 49C28.4 50.2 27.3 51 26 51L8 51 8 45 23.8 45 31.1 23.1C31.5 21.8 32.8 21 34.1 21.1 35.4 21.2 36.6 22.2 36.8 23.5L43.8 61 54 34C54.5 32.8 55.6 32 56.9 32.1 58.2 32.2 59.3 33 59.7 34.3L65.4 53 71.8 46C72.4 45.4 73.2 45 74 45L88 45 88 51 75.3 51 66.2 61C65.5 61.8 64.4 62.1 63.3 61.9 62.2 61.7 61.4 60.9 61.1 59.8L56.6 44.4 45.8 73.1C45.4 74.2 44.2 75 43 75Z" stroke="#504EB9" fill="#FFFFFF"/></svg>